<?xml version="1.0" encoding="utf-8"?>
<!-- Generator: Adobe Illustrator 22.0.1, SVG Export Plug-In . SVG Version: 6.00 Build 0)  -->
<svg version="1.1" id="Layer_1" xmlns="http://www.w3.org/2000/svg" xmlns:xlink="http://www.w3.org/1999/xlink" x="0px" y="0px"
	 viewBox="0 0 378.8 128.5" style="enable-background:new 0 0 378.8 128.5;" xml:space="preserve">
<style type="text/css">
	.st0{fill:#33BB40;}
	.st1{fill:#70CE45;}
	.st2{fill:#229F43;}
	.st3{fill:#304651;}
</style>
<title>Logo_Color_Light</title>
<g id="Layer_2_1_">
	<g id="Layer_1-2">
		<path class="st0" d="M64.1,128.1C28.7,128.1,0,99.5,0,64.1S28.7,0,64.1,0s64.1,28.7,64.1,64.1l0,0
			C128.1,99.4,99.4,128.1,64.1,128.1z M64.1,10.5c-29.6,0-53.5,24-53.5,53.6s24,53.5,53.6,53.5c29.5,0,53.5-24,53.5-53.5
			C117.7,34.5,93.7,10.5,64.1,10.5L64.1,10.5z"/>
		<path class="st1" d="M96.3,35.2c0,6.6-5.3,11.9-11.9,12H53.2c-5.7,0-10.3,4.6-10.4,10.3c0,0.4-0.4,0.8-0.8,0.8
			c-0.4,0-0.8-0.3-0.8-0.8l0,0V46.4c0-6.6,5.4-12,12-12h42.2C96,34.4,96.3,34.8,96.3,35.2L96.3,35.2z"/>
		<path class="st0" d="M86.7,55.4H53.2c-6.6,0-11.9,5.3-12,11.9v11.1c0,0.4,0.3,0.8,0.8,0.8c0.4,0,0.8-0.3,0.8-0.8
			c0-5.7,4.6-10.4,10.4-10.4l0,0h22.3c6.6,0,11.9-5.3,12-11.9C87.5,55.7,87.1,55.4,86.7,55.4L86.7,55.4z"/>
		<path class="st2" d="M77.8,76.3H53.2c-6.6,0-12,5.4-12,12v11.1c0,0.4,0.3,0.8,0.8,0.8l0,0c0.4,0,0.8-0.3,0.8-0.8
			c0-5.7,4.6-10.4,10.4-10.4h13.5c6.6,0,12-5.4,12-12C78.6,76.6,78.2,76.3,77.8,76.3z"/>
		<path class="st3" d="M194.8,75.8l1.9,0.6c-1.3,4.5-3.9,8.4-7.4,11.5c-3.7,3.2-8.5,4.9-13.4,4.7c-7.4,0-13.2-2.3-17.5-7
			s-6.5-11.6-6.5-20.8c0-9.4,2.3-16.5,7-21.5s10.8-7.4,18.5-7.4c13,0,19.5,7.7,19.5,23.1h-29.2c-0.1,1-0.1,2.7-0.1,4.9
			c-0.1,3.9,0.5,7.8,1.9,11.4c1,2.7,2.7,5,5,6.7c1.9,1.4,4.2,2.1,6.6,2.1C186.7,84.1,191.3,81.3,194.8,75.8z M170.5,42.8
			c-1.6,3.1-2.6,7.9-3.1,14.3h16.3c0.3-4.6-0.3-9.2-1.6-13.6c-1.2-3.6-3-5.4-5.5-5.4S172.1,39.7,170.5,42.8z"/>
		<path class="st3" d="M255.3,104.2c0.9,1,2.5,1.5,4.8,1.5v2.2c-6.6-0.3-11-0.4-13.1-0.4s-7,0.1-14.7,0.3l-2.8,0.1v-2.2
			c3.2,0,5.5-0.6,7.1-1.8c1.5-1.2,2.3-3.3,2.3-6.3V83.1c-1,2.8-2.8,5.3-5.2,7.1c-2.4,1.6-5.3,2.5-8.2,2.4c-6,0.2-11.7-2.5-15.4-7.2
			c-3.9-4.8-5.9-11.9-5.9-21.4c0-9.1,2.1-16.1,6.2-20.9c4.1-4.8,9.7-7.2,16.6-7.2c2.5-0.1,5,0.3,7.4,1c2,0.7,3.9,1.8,5.5,3.3
			c2.5,0.1,5-0.4,7.4-1.2c2.2-0.7,4.1-1.8,5.8-3.3l1.6,0.8c-0.5,1.9-0.8,4-0.7,6v56.1C253.9,101.4,254.4,103.2,255.3,104.2z
			 M235.6,85.8c1.8-1.7,3-3.9,3.4-6.3V41.2c-2.1-2.1-5-3.2-8-3.1c-7.4,0-11,8.7-11,26.1c0,8.5,0.9,14.7,2.6,18.4
			c1.7,3.7,4.2,5.6,7.4,5.6C232.1,88.1,234.1,87.3,235.6,85.8z"/>
		<path class="st3" d="M315.5,79.8c0,3.2,0.5,5.5,1.5,7s2.7,2.2,5.1,2.2v2.2c-2.1-0.2-4.3-0.3-6.4-0.3c-5.1-0.1-10.2,0.4-15.2,1.5
			V83c-3.2,6.4-8.8,9.7-16.7,9.7c-5.2,0-9-1.3-11.3-4c-1.2-1.5-2-3.3-2.4-5.2c-0.6-2.7-0.8-5.6-0.8-8.4V48.7c0-3.2-0.5-5.5-1.5-7
			s-2.7-2.2-5.1-2.2v-2.2c2.1,0.2,4.3,0.3,6.5,0.3c5.1,0.1,10.2-0.4,15.2-1.5v43.1c0,2.9,0.4,5.1,1.3,6.6s2.5,2.2,5,2.2
			c2.8,0,5.4-1.3,7.1-3.5c2-2.4,3.1-5.4,3-8.6V48.7c0-3.2-0.5-5.5-1.5-7s-2.7-2.2-5.1-2.2v-2.2c2.2,0.2,4.4,0.3,6.5,0.3
			c5.1,0.1,10.2-0.4,15.2-1.5L315.5,79.8z"/>
		<path class="st3" d="M330.5,88.5c-2.3-2.5-3.4-5.7-3.3-9c-0.1-2.8,0.8-5.5,2.4-7.7c1.6-2,3.6-3.6,6-4.7c2.9-1.3,5.9-2.5,8.9-3.5
			c2.9-0.9,5.7-2.1,8.4-3.6c1.6-0.9,2.7-2.6,2.7-4.4v-8.1c0.2-2.4-0.6-4.8-2-6.8c-1.4-1.6-3.5-2.4-6.3-2.4c-3.3,0-5.9,0.8-7.6,2.5
			c1.8,0.6,3.4,1.7,4.5,3.1c1.1,1.4,1.6,3.1,1.6,4.9c0.1,2.1-0.8,4.2-2.4,5.6c-1.6,1.4-3.7,2.1-5.8,2.1c-2.1,0.1-4.2-0.7-5.6-2.3
			s-2.1-3.6-2-5.7c-0.1-1.8,0.4-3.5,1.4-4.9c1.2-1.6,2.6-2.8,4.3-3.8c2.2-1.2,4.5-2.1,6.9-2.6c2.9-0.6,6-1,9-0.9c3-0.1,6,0.3,8.8,1
			c2.4,0.6,4.5,1.8,6.2,3.5c1.5,1.5,2.6,3.5,3.1,5.6c0.6,3,0.9,6,0.8,9v28.3c-0.1,1.2,0.1,2.4,0.5,3.5c0.3,0.7,1.1,1.1,1.8,1
			c1.4-0.2,2.7-0.8,3.7-1.8l1,1.8c-3.2,2.6-7.3,4-11.4,3.8c-3.8,0-6.5-0.8-8-2.3c-1.6-1.7-2.4-3.9-2.4-6.1
			c-3.5,5.6-8.6,8.4-15.3,8.4C336,91.9,332.7,90.7,330.5,88.5z M355.5,81V59.7c-0.8,1.4-2.6,2.9-5.3,4.6c-2.3,1.4-4.4,3.2-6.2,5.2
			c-1.4,1.7-2.1,4.2-2.1,7.5c0,2.8,0.6,4.9,1.8,6.3c1.2,1.3,2.9,2.1,4.7,2C351.2,85.2,353.5,83.8,355.5,81L355.5,81z"/>
	</g>
</g>
</svg>
