<svg version="1.1" id="Layer_1" xmlns="http://www.w3.org/2000/svg" x="0" y="0" viewBox="0 0 378.8 128.5" xml:space="preserve"><style>.st0{fill:#33bb40}</style><g id="Layer_2_1_"><g id="Layer_1-2"><path class="st0" d="M64.1 128.1C28.7 128.1 0 99.5 0 64.1S28.7 0 64.1 0s64.1 28.7 64.1 64.1c-.1 35.3-28.8 64-64.1 64zm0-117.6c-29.6 0-53.5 24-53.5 53.6s24 53.5 53.6 53.5c29.5 0 53.5-24 53.5-53.5 0-29.6-24-53.6-53.6-53.6z"/><path d="M96.3 35.2c0 6.6-5.3 11.9-11.9 12H53.2c-5.7 0-10.3 4.6-10.4 10.3 0 .4-.4.8-.8.8s-.8-.3-.8-.8V46.4c0-6.6 5.4-12 12-12h42.2c.6 0 .9.4.9.8z" fill="#70ce45"/><path class="st0" d="M86.7 55.4H53.2c-6.6 0-11.9 5.3-12 11.9v11.1c0 .4.3.8.8.8.4 0 .8-.3.8-.8 0-5.7 4.6-10.4 10.4-10.4h22.3c6.6 0 11.9-5.3 12-11.9 0-.4-.4-.7-.8-.7z"/><path d="M77.8 76.3H53.2c-6.6 0-12 5.4-12 12v11.1c0 .4.3.8.8.8.4 0 .8-.3.8-.8 0-5.7 4.6-10.4 10.4-10.4h13.5c6.6 0 12-5.4 12-12-.1-.4-.5-.7-.9-.7z" fill="#229f43"/><path d="M194.8 75.8l1.9.6c-1.3 4.5-3.9 8.4-7.4 11.5-3.7 3.2-8.5 4.9-13.4 4.7-7.4 0-13.2-2.3-17.5-7s-6.5-11.6-6.5-20.8c0-9.4 2.3-16.5 7-21.5s10.8-7.4 18.5-7.4c13 0 19.5 7.7 19.5 23.1h-29.2c-.1 1-.1 2.7-.1 4.9-.1 3.9.5 7.8 1.9 11.4 1 2.7 2.7 5 5 6.7 1.9 1.4 4.2 2.1 6.6 2.1 5.6 0 10.2-2.8 13.7-8.3zm-24.3-33c-1.6 3.1-2.6 7.9-3.1 14.3h16.3c.3-4.6-.3-9.2-1.6-13.6-1.2-3.6-3-5.4-5.5-5.4s-4.5 1.6-6.1 4.7zm84.8 61.4c.9 1 2.5 1.5 4.8 1.5v2.2c-6.6-.3-11-.4-13.1-.4s-7 .1-14.7.3l-2.8.1v-2.2c3.2 0 5.5-.6 7.1-1.8 1.5-1.2 2.3-3.3 2.3-6.3V83.1c-1 2.8-2.8 5.3-5.2 7.1-2.4 1.6-5.3 2.5-8.2 2.4-6 .2-11.7-2.5-15.4-7.2-3.9-4.8-5.9-11.9-5.9-21.4 0-9.1 2.1-16.1 6.2-20.9 4.1-4.8 9.7-7.2 16.6-7.2 2.5-.1 5 .3 7.4 1 2 .7 3.9 1.8 5.5 3.3 2.5.1 5-.4 7.4-1.2 2.2-.7 4.1-1.8 5.8-3.3l1.6.8c-.5 1.9-.8 4-.7 6v56.1c-.1 2.8.4 4.6 1.3 5.6zm-19.7-18.4c1.8-1.7 3-3.9 3.4-6.3V41.2c-2.1-2.1-5-3.2-8-3.1-7.4 0-11 8.7-11 26.1 0 8.5.9 14.7 2.6 18.4 1.7 3.7 4.2 5.6 7.4 5.6 2.1-.1 4.1-.9 5.6-2.4zm79.9-6c0 3.2.5 5.5 1.5 7s2.7 2.2 5.1 2.2v2.2c-2.1-.2-4.3-.3-6.4-.3-5.1-.1-10.2.4-15.2 1.5V83c-3.2 6.4-8.8 9.7-16.7 9.7-5.2 0-9-1.3-11.3-4-1.2-1.5-2-3.3-2.4-5.2-.6-2.7-.8-5.6-.8-8.4V48.7c0-3.2-.5-5.5-1.5-7s-2.7-2.2-5.1-2.2v-2.2c2.1.2 4.3.3 6.5.3 5.1.1 10.2-.4 15.2-1.5v43.1c0 2.9.4 5.1 1.3 6.6s2.5 2.2 5 2.2c2.8 0 5.4-1.3 7.1-3.5 2-2.4 3.1-5.4 3-8.6V48.7c0-3.2-.5-5.5-1.5-7s-2.7-2.2-5.1-2.2v-2.2c2.2.2 4.4.3 6.5.3 5.1.1 10.2-.4 15.2-1.5l-.4 43.7zm15 8.7c-2.3-2.5-3.4-5.7-3.3-9-.1-2.8.8-5.5 2.4-7.7 1.6-2 3.6-3.6 6-4.7 2.9-1.3 5.9-2.5 8.9-3.5 2.9-.9 5.7-2.1 8.4-3.6 1.6-.9 2.7-2.6 2.7-4.4v-8.1c.2-2.4-.6-4.8-2-6.8-1.4-1.6-3.5-2.4-6.3-2.4-3.3 0-5.9.8-7.6 2.5 1.8.6 3.4 1.7 4.5 3.1 1.1 1.4 1.6 3.1 1.6 4.9.1 2.1-.8 4.2-2.4 5.6-1.6 1.4-3.7 2.1-5.8 2.1-2.1.1-4.2-.7-5.6-2.3s-2.1-3.6-2-5.7c-.1-1.8.4-3.5 1.4-4.9 1.2-1.6 2.6-2.8 4.3-3.8 2.2-1.2 4.5-2.1 6.9-2.6 2.9-.6 6-1 9-.9 3-.1 6 .3 8.8 1 2.4.6 4.5 1.8 6.2 3.5 1.5 1.5 2.6 3.5 3.1 5.6.6 3 .9 6 .8 9v28.3c-.1 1.2.1 2.4.5 3.5.3.7 1.1 1.1 1.8 1 1.4-.2 2.7-.8 3.7-1.8l1 1.8c-3.2 2.6-7.3 4-11.4 3.8-3.8 0-6.5-.8-8-2.3-1.6-1.7-2.4-3.9-2.4-6.1-3.5 5.6-8.6 8.4-15.3 8.4-4.4-.1-7.7-1.3-9.9-3.5zm25-7.5V59.7c-.8 1.4-2.6 2.9-5.3 4.6-2.3 1.4-4.4 3.2-6.2 5.2-1.4 1.7-2.1 4.2-2.1 7.5 0 2.8.6 4.9 1.8 6.3 1.2 1.3 2.9 2.1 4.7 2 2.8-.1 5.1-1.5 7.1-4.3z" fill="#304651"/></g></g></svg>